<mxfile host="app.diagrams.net" modified="2021-07-10T18:32:55.431Z" agent="5.0 (Macintosh; Intel Mac OS X 10_15_7) AppleWebKit/605.1.15 (KHTML, like Gecko) Version/14.1.1 Safari/605.1.15" etag="EXoR3Vl01xMe4Q-NXOZh" version="14.8.5" type="github">
  <diagram id="hEOPRyQ-eAC0z9hbc_f6" name="Page-1">
    <mxGraphModel dx="1136" dy="703" grid="1" gridSize="10" guides="1" tooltips="1" connect="1" arrows="1" fold="1" page="1" pageScale="1" pageWidth="827" pageHeight="1169" math="0" shadow="0">
      <root>
        <mxCell id="0" />
        <mxCell id="1" parent="0" />
        <mxCell id="SXLtPEiqwLkHwdA_sOVr-15" value="&lt;b&gt;WEB&lt;br&gt;&lt;br&gt;&lt;br&gt;&lt;br&gt;&lt;br&gt;&lt;/b&gt;" style="rounded=1;whiteSpace=wrap;html=1;dashed=1;opacity=50;" vertex="1" parent="1">
          <mxGeometry x="520" y="80" width="120" height="80" as="geometry" />
        </mxCell>
        <mxCell id="SXLtPEiqwLkHwdA_sOVr-1" value="&lt;b&gt;topaz VM&lt;br&gt;&lt;div style=&quot;text-align: right&quot;&gt;&lt;span style=&quot;font-weight: normal&quot;&gt;apache24&lt;/span&gt;&lt;/div&gt;&lt;/b&gt;&lt;div&gt;&lt;div style=&quot;text-align: right&quot;&gt;ftp trencin&lt;/div&gt;&lt;/div&gt;&lt;div style=&quot;text-align: right&quot;&gt;8GB ;16+120GB&amp;nbsp;&lt;/div&gt;" style="rounded=0;whiteSpace=wrap;html=1;" vertex="1" parent="1">
          <mxGeometry x="180" y="270" width="120" height="60" as="geometry" />
        </mxCell>
        <mxCell id="SXLtPEiqwLkHwdA_sOVr-2" value="&lt;b&gt;nefrit VM&lt;br&gt;&lt;/b&gt;apache22+24&lt;br&gt;ftp saneca&lt;br&gt;8GB ;18+36+70GB" style="rounded=0;whiteSpace=wrap;html=1;" vertex="1" parent="1">
          <mxGeometry x="320" y="270" width="120" height="60" as="geometry" />
        </mxCell>
        <mxCell id="SXLtPEiqwLkHwdA_sOVr-3" value="&lt;b&gt;git VM&lt;br&gt;&lt;/b&gt;docker+nginx&lt;br&gt;ssh git access&amp;nbsp;23232&lt;br&gt;4GB ; 20GB++" style="rounded=0;whiteSpace=wrap;html=1;" vertex="1" parent="1">
          <mxGeometry x="460" y="270" width="120" height="60" as="geometry" />
        </mxCell>
        <mxCell id="SXLtPEiqwLkHwdA_sOVr-4" value="&lt;b&gt;go VM&lt;br&gt;&lt;/b&gt;nginx&lt;br&gt;10GB ; 8+60GB" style="rounded=0;whiteSpace=wrap;html=1;" vertex="1" parent="1">
          <mxGeometry x="600" y="270" width="120" height="60" as="geometry" />
        </mxCell>
        <mxCell id="SXLtPEiqwLkHwdA_sOVr-5" value="&lt;b&gt;lb proxy VM&lt;/b&gt;" style="rounded=0;whiteSpace=wrap;html=1;" vertex="1" parent="1">
          <mxGeometry x="390" y="90" width="120" height="60" as="geometry" />
        </mxCell>
        <mxCell id="SXLtPEiqwLkHwdA_sOVr-6" value="PUBLIC IP:443&lt;br&gt;PUBLIC IP:80" style="text;html=1;strokeColor=#b85450;fillColor=#f8cecc;align=center;verticalAlign=middle;whiteSpace=wrap;rounded=0;" vertex="1" parent="1">
          <mxGeometry x="400" y="60" width="100" height="30" as="geometry" />
        </mxCell>
        <mxCell id="SXLtPEiqwLkHwdA_sOVr-8" value="LetsEncrypt" style="rounded=1;whiteSpace=wrap;html=1;dashed=1;" vertex="1" parent="1">
          <mxGeometry x="200" y="345" width="70" height="50" as="geometry" />
        </mxCell>
        <mxCell id="SXLtPEiqwLkHwdA_sOVr-9" value="" style="endArrow=classic;html=1;entryX=1;entryY=0.5;entryDx=0;entryDy=0;exitX=1;exitY=0.5;exitDx=0;exitDy=0;fillColor=#f8cecc;strokeColor=#b85450;dashed=1;" edge="1" parent="1" source="SXLtPEiqwLkHwdA_sOVr-8" target="SXLtPEiqwLkHwdA_sOVr-7">
          <mxGeometry width="50" height="50" relative="1" as="geometry">
            <mxPoint x="260" y="365" as="sourcePoint" />
            <mxPoint x="500" y="270" as="targetPoint" />
            <Array as="points">
              <mxPoint x="800" y="365" />
              <mxPoint x="800" y="108" />
            </Array>
          </mxGeometry>
        </mxCell>
        <mxCell id="SXLtPEiqwLkHwdA_sOVr-11" value="" style="endArrow=classic;html=1;entryX=0;entryY=1;entryDx=0;entryDy=0;exitX=0.5;exitY=0;exitDx=0;exitDy=0;fillColor=#f8cecc;strokeColor=#b85450;dashed=1;" edge="1" parent="1" source="SXLtPEiqwLkHwdA_sOVr-1" target="SXLtPEiqwLkHwdA_sOVr-10">
          <mxGeometry width="50" height="50" relative="1" as="geometry">
            <mxPoint x="450" y="320" as="sourcePoint" />
            <mxPoint x="500" y="270" as="targetPoint" />
          </mxGeometry>
        </mxCell>
        <mxCell id="SXLtPEiqwLkHwdA_sOVr-12" value="" style="endArrow=classic;html=1;entryX=0.25;entryY=1;entryDx=0;entryDy=0;exitX=0.5;exitY=0;exitDx=0;exitDy=0;fillColor=#f8cecc;strokeColor=#b85450;dashed=1;" edge="1" parent="1" source="SXLtPEiqwLkHwdA_sOVr-2" target="SXLtPEiqwLkHwdA_sOVr-10">
          <mxGeometry width="50" height="50" relative="1" as="geometry">
            <mxPoint x="250" y="280" as="sourcePoint" />
            <mxPoint x="530" y="160" as="targetPoint" />
          </mxGeometry>
        </mxCell>
        <mxCell id="SXLtPEiqwLkHwdA_sOVr-13" value="" style="endArrow=classic;html=1;entryX=0.5;entryY=1;entryDx=0;entryDy=0;exitX=0.45;exitY=0.033;exitDx=0;exitDy=0;exitPerimeter=0;fillColor=#f8cecc;strokeColor=#b85450;dashed=1;" edge="1" parent="1" source="SXLtPEiqwLkHwdA_sOVr-3" target="SXLtPEiqwLkHwdA_sOVr-10">
          <mxGeometry width="50" height="50" relative="1" as="geometry">
            <mxPoint x="390" y="280" as="sourcePoint" />
            <mxPoint x="547.5" y="160" as="targetPoint" />
          </mxGeometry>
        </mxCell>
        <mxCell id="SXLtPEiqwLkHwdA_sOVr-14" value="" style="endArrow=classic;html=1;entryX=0.75;entryY=1;entryDx=0;entryDy=0;exitX=0.5;exitY=0;exitDx=0;exitDy=0;fillColor=#f8cecc;strokeColor=#b85450;dashed=1;" edge="1" parent="1" source="SXLtPEiqwLkHwdA_sOVr-4" target="SXLtPEiqwLkHwdA_sOVr-10">
          <mxGeometry width="50" height="50" relative="1" as="geometry">
            <mxPoint x="400" y="290" as="sourcePoint" />
            <mxPoint x="557.5" y="170" as="targetPoint" />
          </mxGeometry>
        </mxCell>
        <mxCell id="SXLtPEiqwLkHwdA_sOVr-16" value="&lt;b&gt;SSH&lt;br&gt;&lt;br&gt;&lt;br&gt;&lt;br&gt;&lt;br&gt;&lt;br&gt;&lt;br&gt;&lt;/b&gt;" style="rounded=1;whiteSpace=wrap;html=1;dashed=1;opacity=50;" vertex="1" parent="1">
          <mxGeometry x="260" y="80" width="120" height="100" as="geometry" />
        </mxCell>
        <mxCell id="SXLtPEiqwLkHwdA_sOVr-17" value="2222 - topaz" style="rounded=1;whiteSpace=wrap;html=1;dashed=1;align=left;" vertex="1" parent="1">
          <mxGeometry x="260" y="100" width="110" height="15" as="geometry" />
        </mxCell>
        <mxCell id="SXLtPEiqwLkHwdA_sOVr-19" value="2223 - nefrit" style="rounded=1;whiteSpace=wrap;html=1;dashed=1;align=left;" vertex="1" parent="1">
          <mxGeometry x="260" y="115" width="110" height="15" as="geometry" />
        </mxCell>
        <mxCell id="SXLtPEiqwLkHwdA_sOVr-20" value="2224 - git" style="rounded=1;whiteSpace=wrap;html=1;dashed=1;align=left;" vertex="1" parent="1">
          <mxGeometry x="260" y="130" width="110" height="15" as="geometry" />
        </mxCell>
        <mxCell id="SXLtPEiqwLkHwdA_sOVr-21" value="2225 - git &amp;nbsp;repo" style="rounded=1;whiteSpace=wrap;html=1;dashed=1;align=left;" vertex="1" parent="1">
          <mxGeometry x="260" y="145" width="110" height="15" as="geometry" />
        </mxCell>
        <mxCell id="SXLtPEiqwLkHwdA_sOVr-23" value="" style="endArrow=block;html=1;exitX=0;exitY=0.5;exitDx=0;exitDy=0;entryX=0.25;entryY=0;entryDx=0;entryDy=0;endFill=1;fillColor=#e1d5e7;strokeColor=#9673a6;" edge="1" parent="1" source="SXLtPEiqwLkHwdA_sOVr-17" target="SXLtPEiqwLkHwdA_sOVr-1">
          <mxGeometry width="50" height="50" relative="1" as="geometry">
            <mxPoint x="450" y="320" as="sourcePoint" />
            <mxPoint x="500" y="270" as="targetPoint" />
            <Array as="points">
              <mxPoint x="210" y="150" />
            </Array>
          </mxGeometry>
        </mxCell>
        <mxCell id="SXLtPEiqwLkHwdA_sOVr-28" value="" style="endArrow=block;html=1;exitX=0;exitY=0.5;exitDx=0;exitDy=0;entryX=0.058;entryY=-0.033;entryDx=0;entryDy=0;endFill=1;fillColor=#e1d5e7;strokeColor=#9673a6;entryPerimeter=0;" edge="1" parent="1" source="SXLtPEiqwLkHwdA_sOVr-21" target="SXLtPEiqwLkHwdA_sOVr-3">
          <mxGeometry width="50" height="50" relative="1" as="geometry">
            <mxPoint x="270" y="117.5" as="sourcePoint" />
            <mxPoint x="220" y="280" as="targetPoint" />
            <Array as="points">
              <mxPoint x="230" y="160" />
              <mxPoint x="230" y="200" />
            </Array>
          </mxGeometry>
        </mxCell>
        <mxCell id="SXLtPEiqwLkHwdA_sOVr-30" value="&lt;b&gt;FTP&lt;br&gt;&lt;br&gt;&lt;br&gt;&lt;br&gt;&lt;br&gt;&lt;/b&gt;" style="rounded=1;whiteSpace=wrap;html=1;dashed=1;opacity=50;" vertex="1" parent="1">
          <mxGeometry x="80" y="80" width="120" height="80" as="geometry" />
        </mxCell>
        <mxCell id="SXLtPEiqwLkHwdA_sOVr-31" value="2121 - topaz" style="rounded=1;whiteSpace=wrap;html=1;dashed=1;" vertex="1" parent="1">
          <mxGeometry x="85" y="135" width="110" height="15" as="geometry" />
        </mxCell>
        <mxCell id="SXLtPEiqwLkHwdA_sOVr-32" value="2122 - nefrit" style="rounded=1;whiteSpace=wrap;html=1;dashed=1;" vertex="1" parent="1">
          <mxGeometry x="85" y="120" width="110" height="15" as="geometry" />
        </mxCell>
        <mxCell id="SXLtPEiqwLkHwdA_sOVr-33" value="" style="endArrow=block;html=1;exitX=0;exitY=0.5;exitDx=0;exitDy=0;entryX=0;entryY=0.5;entryDx=0;entryDy=0;endFill=1;fillColor=#ffe6cc;strokeColor=#d79b00;" edge="1" parent="1" source="SXLtPEiqwLkHwdA_sOVr-31" target="SXLtPEiqwLkHwdA_sOVr-1">
          <mxGeometry width="50" height="50" relative="1" as="geometry">
            <mxPoint x="110" y="130" as="sourcePoint" />
            <mxPoint x="60" y="292.5" as="targetPoint" />
            <Array as="points">
              <mxPoint x="50" y="140" />
              <mxPoint x="50" y="300" />
            </Array>
          </mxGeometry>
        </mxCell>
        <mxCell id="SXLtPEiqwLkHwdA_sOVr-34" value="" style="endArrow=block;html=1;exitX=0;exitY=0.5;exitDx=0;exitDy=0;entryX=0.5;entryY=1;entryDx=0;entryDy=0;endFill=1;fillColor=#ffe6cc;strokeColor=#d79b00;" edge="1" parent="1" source="SXLtPEiqwLkHwdA_sOVr-32" target="SXLtPEiqwLkHwdA_sOVr-2">
          <mxGeometry width="50" height="50" relative="1" as="geometry">
            <mxPoint x="95" y="122.5" as="sourcePoint" />
            <mxPoint x="190" y="310" as="targetPoint" />
            <Array as="points">
              <mxPoint x="20" y="130" />
              <mxPoint x="20" y="230" />
              <mxPoint x="20" y="340" />
              <mxPoint x="85" y="340" />
              <mxPoint x="360" y="340" />
            </Array>
          </mxGeometry>
        </mxCell>
        <mxCell id="SXLtPEiqwLkHwdA_sOVr-35" value="" style="endArrow=classic;html=1;entryX=1;entryY=0;entryDx=0;entryDy=0;exitX=0.5;exitY=1;exitDx=0;exitDy=0;fillColor=#dae8fc;strokeColor=#6c8ebf;" edge="1" parent="1" source="SXLtPEiqwLkHwdA_sOVr-5" target="SXLtPEiqwLkHwdA_sOVr-1">
          <mxGeometry width="50" height="50" relative="1" as="geometry">
            <mxPoint x="490" y="310" as="sourcePoint" />
            <mxPoint x="540" y="260" as="targetPoint" />
          </mxGeometry>
        </mxCell>
        <mxCell id="SXLtPEiqwLkHwdA_sOVr-36" value="" style="endArrow=classic;html=1;entryX=0.425;entryY=-0.05;entryDx=0;entryDy=0;exitX=0.5;exitY=1;exitDx=0;exitDy=0;entryPerimeter=0;fillColor=#dae8fc;strokeColor=#6c8ebf;" edge="1" parent="1" source="SXLtPEiqwLkHwdA_sOVr-5" target="SXLtPEiqwLkHwdA_sOVr-2">
          <mxGeometry width="50" height="50" relative="1" as="geometry">
            <mxPoint x="430" y="160" as="sourcePoint" />
            <mxPoint x="310" y="280" as="targetPoint" />
          </mxGeometry>
        </mxCell>
        <mxCell id="SXLtPEiqwLkHwdA_sOVr-37" value="" style="endArrow=classic;html=1;entryX=0.25;entryY=0;entryDx=0;entryDy=0;exitX=0.5;exitY=1;exitDx=0;exitDy=0;fillColor=#dae8fc;strokeColor=#6c8ebf;" edge="1" parent="1" source="SXLtPEiqwLkHwdA_sOVr-5" target="SXLtPEiqwLkHwdA_sOVr-3">
          <mxGeometry width="50" height="50" relative="1" as="geometry">
            <mxPoint x="460" y="160" as="sourcePoint" />
            <mxPoint x="381" y="277" as="targetPoint" />
          </mxGeometry>
        </mxCell>
        <mxCell id="SXLtPEiqwLkHwdA_sOVr-38" value="" style="endArrow=classic;html=1;entryX=0.25;entryY=0;entryDx=0;entryDy=0;exitX=0.5;exitY=1;exitDx=0;exitDy=0;fillColor=#dae8fc;strokeColor=#6c8ebf;" edge="1" parent="1" source="SXLtPEiqwLkHwdA_sOVr-5" target="SXLtPEiqwLkHwdA_sOVr-4">
          <mxGeometry width="50" height="50" relative="1" as="geometry">
            <mxPoint x="460" y="160" as="sourcePoint" />
            <mxPoint x="500" y="280" as="targetPoint" />
          </mxGeometry>
        </mxCell>
        <mxCell id="SXLtPEiqwLkHwdA_sOVr-39" value="2226 - go" style="rounded=1;whiteSpace=wrap;html=1;dashed=1;align=left;" vertex="1" parent="1">
          <mxGeometry x="260" y="160" width="110" height="15" as="geometry" />
        </mxCell>
        <mxCell id="SXLtPEiqwLkHwdA_sOVr-7" value="Certificates" style="rounded=1;whiteSpace=wrap;html=1;dashed=1;" vertex="1" parent="1">
          <mxGeometry x="520" y="100" width="120" height="15" as="geometry" />
        </mxCell>
        <mxCell id="SXLtPEiqwLkHwdA_sOVr-10" value="Virtualhosts &amp;nbsp;routing" style="rounded=1;whiteSpace=wrap;html=1;dashed=1;" vertex="1" parent="1">
          <mxGeometry x="520" y="130" width="120" height="20" as="geometry" />
        </mxCell>
        <mxCell id="SXLtPEiqwLkHwdA_sOVr-41" value="" style="endArrow=block;html=1;exitX=0;exitY=0.75;exitDx=0;exitDy=0;entryX=0.25;entryY=0;entryDx=0;entryDy=0;endFill=1;fillColor=#e1d5e7;strokeColor=#9673a6;" edge="1" parent="1" source="SXLtPEiqwLkHwdA_sOVr-19" target="SXLtPEiqwLkHwdA_sOVr-2">
          <mxGeometry width="50" height="50" relative="1" as="geometry">
            <mxPoint x="270" y="162.5" as="sourcePoint" />
            <mxPoint x="476.96000000000004" y="278.02" as="targetPoint" />
            <Array as="points">
              <mxPoint x="220" y="150" />
              <mxPoint x="220" y="210" />
            </Array>
          </mxGeometry>
        </mxCell>
      </root>
    </mxGraphModel>
  </diagram>
</mxfile>
